{
  "accessors": [
    {
      "bufferView": 2,
      "componentType": 5126,
      "count": 7376,
      "max": [
        2.343600034713745,
        5.173972129821777,
        11.859275817871094
      ],
      "min": [
        -2.294027090072632,
        -4.801624774932861,
        -0.0038189999759197235
      ],
      "type": "VEC3"
    },
    {
      "bufferView": 2,
      "byteOffset": 88512,
      "componentType": 5126,
      "count": 7376,
      "max": [
        1.0,
        1.0,
        0.9970309734344482
      ],
      "min": [
        -1.0,
        -1.0,
        -0.9982460737228394
      ],
      "type": "VEC3"
    },
    {
      "bufferView": 1,
      "componentType": 5126,
      "count": 7376,
      "max": [
        1.0,
        1.0
      ],
      "min": [
        0.0,
        0.0
      ],
      "type": "VEC2"
    },
    {
      "bufferView": 0,
      "componentType": 5125,
      "count": 39936,
      "type": "SCALAR"
    },
    {
      "bufferView": 2,
      "byteOffset": 177024,
      "componentType": 5126,
      "count": 9893,
      "max": [
        0.9879530072212219,
        8.54946231842041,
        8.482998847961426
      ],
      "min": [
        -0.9879530072212219,
        -4.913148880004883,
        4.282853126525879
      ],
      "type": "VEC3"
    },
    {
      "bufferView": 2,
      "byteOffset": 295740,
      "componentType": 5126,
      "count": 9893,
      "max": [
        1.0,
        1.0,
        0.9999890327453613
      ],
      "min": [
        -1.0,
        -1.0,
        -0.9999315738677979
      ],
      "type": "VEC3"
    },
    {
      "bufferView": 1,
      "byteOffset": 59008,
      "componentType": 5126,
      "count": 9893,
      "max": [
        1.0000009536743164,
        1.0
      ],
      "min": [
        -0.004513000138103962,
        0.0
      ],
      "type": "VEC2"
    },
    {
      "bufferView": 0,
      "byteOffset": 159744,
      "componentType": 5125,
      "count": 54144,
      "type": "SCALAR"
    }
  ],
  "asset": {
    "extras": {
      "author": "Octaclee (https://sketchfab.com/octaclee1)",
      "license": "CC-BY-4.0 (http://creativecommons.org/licenses/by/4.0/)",
      "source": "https://sketchfab.com/3d-models/balloon-dog-e10d4f9e8eb34a62b1f67927e390d82f",
      "title": "Balloon Dog"
    },
    "generator": "Sketchfab-12.66.0",
    "version": "2.0"
  },
  "bufferViews": [
    {
      "buffer": 0,
      "byteLength": 376320,
      "name": "floatBufferViews",
      "target": 34963
    },
    {
      "buffer": 0,
      "byteLength": 138152,
      "byteOffset": 376320,
      "byteStride": 8,
      "name": "floatBufferViews",
      "target": 34962
    },
    {
      "buffer": 0,
      "byteLength": 414456,
      "byteOffset": 514472,
      "byteStride": 12,
      "name": "floatBufferViews",
      "target": 34962
    }
  ],
  "buffers": [
    {
      "byteLength": 928928,
      "uri": "scene.bin"
    }
  ],
  "extensionsRequired": [
    "KHR_materials_pbrSpecularGlossiness"
  ],
  "extensionsUsed": [
    "KHR_materials_pbrSpecularGlossiness"
  ],
  "materials": [
    {
      "alphaMode": "BLEND",
      "doubleSided": true,
      "extensions": {
        "KHR_materials_pbrSpecularGlossiness": {
          "diffuseFactor": [
            1.0,
            0.006598275912249235,
            0.6672331280404282,
            0.15979455094881104
          ],
          "glossinessFactor": 1.0,
          "specularFactor": [
            0.2631574947254498,
            0.2631574947254498,
            0.2631574947254498
          ]
        }
      },
      "name": "Material.001"
    }
  ],
  "meshes": [
    {
      "name": "Object_0",
      "primitives": [
        {
          "attributes": {
            "NORMAL": 1,
            "POSITION": 0,
            "TEXCOORD_0": 2
          },
          "indices": 3,
          "material": 0,
          "mode": 4
        }
      ]
    },
    {
      "name": "Object_1",
      "primitives": [
        {
          "attributes": {
            "NORMAL": 5,
            "POSITION": 4,
            "TEXCOORD_0": 6
          },
          "indices": 7,
          "material": 0,
          "mode": 4
        }
      ]
    }
  ],
  "nodes": [
    {
      "children": [
        1
      ],
      "matrix": [
        0.03303777426481247,
        0.0,
        0.0,
        0.0,
        0.0,
        7.335859534232651e-18,
        -0.03303777426481247,
        0.0,
        0.0,
        0.03303777426481247,
        7.335859534232651e-18,
        0.0,
        0.0,
        0.0,
        0.0,
        1.0
      ],
      "name": "Sketchfab_model"
    },
    {
      "children": [
        2,
        3
      ],
      "name": "Globo.obj.cleaner.materialmerger.gles"
    },
    {
      "mesh": 0,
      "name": "Object_2"
    },
    {
      "mesh": 1,
      "name": "Object_3"
    }
  ],
  "scene": 0,
  "scenes": [
    {
      "name": "Sketchfab_Scene",
      "nodes": [
        0
      ]
    }
  ]
}
