{
  "accessors": [
    {
      "bufferView": 2,
      "componentType": 5126,
      "count": 4913,
      "max": [
        1.514361023902893,
        -8.057120323181152,
        7.851996898651123
      ],
      "min": [
        1.0490909814834595,
        -8.931936264038086,
        4.836223125457764
      ],
      "type": "VEC3"
    },
    {
      "bufferView": 2,
      "byteOffset": 58956,
      "componentType": 5126,
      "count": 4913,
      "max": [
        0.9999998807907104,
        0.9999695420265198,
        0.9999861121177673
      ],
      "min": [
        -0.9999998807907104,
        -0.9998890161514282,
        -0.9999362230300903
      ],
      "type": "VEC3"
    },
    {
      "bufferView": 1,
      "componentType": 5126,
      "count": 4913,
      "max": [
        0.875,
        1.0
      ],
      "min": [
        0.125,
        0.0
      ],
      "type": "VEC2"
    },
    {
      "bufferView": 0,
      "componentType": 5125,
      "count": 27648,
      "type": "SCALAR"
    },
    {
      "bufferView": 2,
      "byteOffset": 117912,
      "componentType": 5126,
      "count": 911,
      "max": [
        1.4829330444335938,
        4.64300012588501,
        7.7617950439453125
      ],
      "min": [
        0.894336998462677,
        3.833906888961792,
        7.090287208557129
      ],
      "type": "VEC3"
    },
    {
      "bufferView": 2,
      "byteOffset": 128844,
      "componentType": 5126,
      "count": 911,
      "max": [
        1.0,
        0.9984005093574524,
        0.949309229850769
      ],
      "min": [
        -1.0,
        -0.9999973773956299,
        -0.9964257478713989
      ],
      "type": "VEC3"
    },
    {
      "bufferView": 1,
      "byteOffset": 39304,
      "componentType": 5126,
      "count": 911,
      "max": [
        0.65625,
        0.997626006603241
      ],
      "min": [
        0.34375,
        0.0023739999160170555
      ],
      "type": "VEC2"
    },
    {
      "bufferView": 0,
      "byteOffset": 110592,
      "componentType": 5125,
      "count": 4968,
      "type": "SCALAR"
    },
    {
      "bufferView": 2,
      "byteOffset": 139776,
      "componentType": 5126,
      "count": 2850,
      "max": [
        3.9448630809783936,
        4.184222221374512,
        10.1460542678833
      ],
      "min": [
        -1.5205060243606567,
        -10.1173095703125,
        -3.2422239780426025
      ],
      "type": "VEC3"
    },
    {
      "bufferView": 2,
      "byteOffset": 173976,
      "componentType": 5126,
      "count": 2850,
      "max": [
        0.9999874830245972,
        1.0,
        0.9999812245368958
      ],
      "min": [
        -0.9999774694442749,
        -1.0,
        -0.9999812245368958
      ],
      "type": "VEC3"
    },
    {
      "bufferView": 1,
      "byteOffset": 46592,
      "componentType": 5126,
      "count": 2850,
      "max": [
        0.875,
        1.0
      ],
      "min": [
        0.125,
        0.0
      ],
      "type": "VEC2"
    },
    {
      "bufferView": 0,
      "byteOffset": 130464,
      "componentType": 5125,
      "count": 13440,
      "type": "SCALAR"
    }
  ],
  "asset": {
    "extras": {
      "author": "Renee (https://sketchfab.com/penne168)",
      "license": "CC-BY-4.0 (http://creativecommons.org/licenses/by/4.0/)",
      "source": "https://sketchfab.com/3d-models/balloon-doggo-character-c4529d497cd24640a521b92b69ead8d2",
      "title": "balloon doggo character"
    },
    "generator": "Sketchfab-12.56.0",
    "version": "2.0"
  },
  "bufferViews": [
    {
      "buffer": 0,
      "byteLength": 184224,
      "name": "floatBufferViews",
      "target": 34963
    },
    {
      "buffer": 0,
      "byteLength": 69392,
      "byteOffset": 184224,
      "byteStride": 8,
      "name": "floatBufferViews",
      "target": 34962
    },
    {
      "buffer": 0,
      "byteLength": 208176,
      "byteOffset": 253616,
      "byteStride": 12,
      "name": "floatBufferViews",
      "target": 34962
    }
  ],
  "buffers": [
    {
      "byteLength": 461792,
      "uri": "scene.bin"
    }
  ],
  "materials": [
    {
      "doubleSided": true,
      "name": "initialShadingGroup",
      "pbrMetallicRoughness": {
        "baseColorFactor": [
          0.12755646058160636,
          0.12755646058160636,
          0.12755646058160636,
          1.0
        ],
        "roughnessFactor": 0.0
      }
    },
    {
      "doubleSided": true,
      "name": "lambert3SG",
      "pbrMetallicRoughness": {
        "baseColorFactor": [
          0.12743768043564743,
          0.12743768043564743,
          0.12743768043564743,
          1.0
        ],
        "roughnessFactor": 0.0
      }
    },
    {
      "doubleSided": true,
      "name": "lambert4SG",
      "pbrMetallicRoughness": {
        "baseColorFactor": [
          0.12743768043564743,
          0.12743768043564743,
          0.12743768043564743,
          1.0
        ],
        "roughnessFactor": 0.0
      }
    }
  ],
  "meshes": [
    {
      "name": "Object_0",
      "primitives": [
        {
          "attributes": {
            "NORMAL": 1,
            "POSITION": 0,
            "TEXCOORD_0": 2
          },
          "indices": 3,
          "material": 2,
          "mode": 4
        }
      ]
    },
    {
      "name": "Object_1",
      "primitives": [
        {
          "attributes": {
            "NORMAL": 5,
            "POSITION": 4,
            "TEXCOORD_0": 6
          },
          "indices": 7,
          "material": 1,
          "mode": 4
        }
      ]
    },
    {
      "name": "Object_2",
      "primitives": [
        {
          "attributes": {
            "NORMAL": 9,
            "POSITION": 8,
            "TEXCOORD_0": 10
          },
          "indices": 11,
          "material": 0,
          "mode": 4
        }
      ]
    }
  ],
  "nodes": [
    {
      "children": [
        1
      ],
      "matrix": [
        1.0,
        0.0,
        0.0,
        0.0,
        0.0,
        2.220446049250313e-16,
        -1.0,
        0.0,
        0.0,
        1.0,
        2.220446049250313e-16,
        0.0,
        0.0,
        0.0,
        0.0,
        1.0
      ],
      "name": "Sketchfab_model"
    },
    {
      "children": [
        2,
        3,
        4
      ],
      "name": "balloondoggo.obj.cleaner.materialmerger.gles"
    },
    {
      "mesh": 0,
      "name": "Object_2"
    },
    {
      "mesh": 1,
      "name": "Object_3"
    },
    {
      "mesh": 2,
      "name": "Object_4"
    }
  ],
  "scene": 0,
  "scenes": [
    {
      "name": "Sketchfab_Scene",
      "nodes": [
        0
      ]
    }
  ]
}
